<svg xmlns:mydata="http://www.w3.org/2000/svg" mydata:contrastcolor="11111f"
                mydata:template="Contrast" mydata:presentation="2.5" mydata:layouttype="undefined"
                mydata:specialfontid="undefined" mydata:id1="005" mydata:id2="099" mydata:companyname="LNDR"
                mydata:companytagline="" version="1.1" xmlns="http://www.w3.org/2000/svg"
                xmlns:xlink="http://www.w3.org/1999/xlink" viewBox="0 0 550 470">
                <g fill="none" fill-rule="none" stroke="none" stroke-width="1" stroke-linecap="butt"
                    stroke-linejoin="miter" stroke-miterlimit="10" stroke-dasharray="" stroke-dashoffset="0"
                    font-family="none" font-weight="none" font-size="none" text-anchor="none"
                    style="mix-blend-mode: normal">
                    <g
                        data-paper-data="{&quot;isGlobalGroup&quot;:true,&quot;bounds&quot;:{&quot;x&quot;:105.14004256061006,&quot;y&quot;:187.3282632934909,&quot;width&quot;:339.71991487877995,&quot;height&quot;:95.34354492061968}}">
                        <g data-paper-data="{&quot;isPrimaryText&quot;:true}">
                            <path
                                d="M278.19403,263.99781c0,0.89322 -0.16748,1.72265 -0.50244,2.48827c-0.33496,0.76562 -0.78157,1.42756 -1.33984,1.98583c-0.55826,0.55826 -1.22021,0.9969 -1.98583,1.31591c-0.76562,0.31901 -1.57909,0.47851 -2.44041,0.47851c-0.76562,0 -1.53922,-0.14355 -2.32079,-0.43066c-0.78157,-0.28711 -1.47541,-0.74967 -2.08153,-1.38769l-45.45869,-47.46845v48.32977h-12.44133v-63.30721c0,-1.27603 0.35888,-2.43244 1.07665,-3.46922c0.71777,-1.03678 1.63492,-1.81037 2.75145,-2.32079c1.18033,-0.47851 2.39256,-0.59814 3.6367,-0.35888c1.24413,0.23926 2.31281,0.82145 3.20603,1.74657l45.45869,47.4206v-48.32977h12.44133z"
                                data-paper-data="{&quot;glyphName&quot;:&quot;N&quot;,&quot;glyphIndex&quot;:1,&quot;word&quot;:1}"
                                fill="#41b6e6" fill-rule="nonzero"></path>
                            <path
                                d="M361.12026,240.59855c0,4.17901 -0.72574,8.02306 -2.17723,11.53215c-1.45149,3.50909 -3.45327,6.5317 -6.00533,9.06781c-2.55207,2.53612 -5.58265,4.52194 -9.09174,5.95748c-3.50909,1.43554 -7.32124,2.15331 -11.43645,2.15331h-33.59158c-0.89322,0 -1.72265,-0.1595 -2.48827,-0.47851c-0.76562,-0.31901 -1.42756,-0.75764 -1.98583,-1.31591c-0.55826,-0.55826 -0.9969,-1.22021 -1.31591,-1.98583c-0.31901,-0.76562 -0.47851,-1.59504 -0.47851,-2.48827v-56.08167c0,-0.86132 0.1595,-1.67479 0.47851,-2.44041c0.31901,-0.76562 0.75764,-1.43554 1.31591,-2.00975c0.55826,-0.57422 1.22021,-1.02083 1.98583,-1.33984c0.76562,-0.31901 1.59504,-0.47851 2.48827,-0.47851h33.59158c4.11521,0 7.92736,0.71777 11.43645,2.15331c3.50909,1.43554 6.53967,3.42136 9.09174,5.95748c2.55207,2.53612 4.55384,5.5667 6.00533,9.09174c1.45149,3.52504 2.17723,7.36112 2.17723,11.50823zM348.67893,229.40135c0,-2.42446 -0.39079,-4.64157 -1.17236,-6.65132c-0.78157,-2.00975 -1.89012,-3.72442 -3.32566,-5.14401c-1.43554,-1.41959 -3.15021,-2.52017 -5.14401,-3.30174c-1.9938,-0.78157 -4.20294,-1.17236 -6.6274,-1.17236h-27.41877v43.73605h27.41877c2.42446,0 4.6336,-0.39079 6.6274,-1.17236c1.9938,-0.78157 3.70847,-1.88215 5.14401,-3.30174c1.43554,-1.41959 2.54409,-3.12628 3.32566,-5.12008c0.78157,-1.9938 1.17236,-4.21889 1.17236,-6.67525z"
                                data-paper-data="{&quot;glyphName&quot;:&quot;D&quot;,&quot;glyphIndex&quot;:2,&quot;word&quot;:1}"
                                fill="#41b6e6" fill-rule="nonzero"></path>
                            <path
                                d="M441.89318,223.7549c0,2.83917 -0.35091,5.37529 -1.05273,7.60835c-0.70182,2.23306 -1.65087,4.20294 -2.84715,5.90963c-1.19628,1.70669 -2.57599,3.16616 -4.13913,4.37839c-1.56314,1.21223 -3.19806,2.20913 -4.90475,2.9907c-1.70669,0.78157 -3.42934,1.34781 -5.16794,1.69872c-1.7386,0.35091 -3.37351,0.52636 -4.90475,0.52636l25.98323,22.44224h-19.23621l-25.93538,-22.44224h-8.94819v-12.44133h28.13654c1.56314,-0.1276 2.9907,-0.45459 4.28269,-0.98095c1.29198,-0.52636 2.40851,-1.23616 3.34959,-2.12938c0.94107,-0.89322 1.66682,-1.96988 2.17723,-3.22996c0.51041,-1.26008 0.76562,-2.7036 0.76562,-4.33054v-7.84761c0,-0.70182 -0.08773,-1.23616 -0.26318,-1.60302c-0.17545,-0.36686 -0.39876,-0.63802 -0.66992,-0.81347c-0.27116,-0.17545 -0.55826,-0.27913 -0.86132,-0.31103c-0.30306,-0.0319 -0.58219,-0.04785 -0.8374,-0.04785h-41.05638v56.17738h-12.44133v-62.35019c0,-0.86132 0.1595,-1.67479 0.47851,-2.44041c0.31901,-0.76562 0.75764,-1.43554 1.31591,-2.00975c0.55826,-0.57422 1.22021,-1.02083 1.98583,-1.33984c0.76562,-0.31901 1.59504,-0.47851 2.48827,-0.47851h47.22919c2.77537,0 5.12008,0.50244 7.03413,1.50731c1.91405,1.00488 3.46922,2.26496 4.6655,3.78025c1.19628,1.51529 2.0576,3.15021 2.58397,4.90475c0.52636,1.75455 0.78955,3.39744 0.78955,4.92868z"
                                data-paper-data="{&quot;glyphName&quot;:&quot;R&quot;,&quot;glyphIndex&quot;:3,&quot;lastGlyphOfWord&quot;:true,&quot;word&quot;:1}"
                                fill="#41b6e6" fill-rule="nonzero"></path>
                            <g data-paper-data="{&quot;fillRule&quot;:&quot;nonzero&quot;,&quot;fillRuleOriginal&quot;:&quot;nonzero&quot;,&quot;isIcon&quot;:true,&quot;iconStyle&quot;:&quot;icon-in-text&quot;,&quot;selectedEffects&quot;:{&quot;container&quot;:&quot;circle_simple_outline3&quot;,&quot;transformation&quot;:&quot;&quot;,&quot;pattern&quot;:&quot;&quot;},&quot;bounds&quot;:{&quot;x&quot;:105.14004256061006,&quot;y&quot;:187.3282632934909,&quot;width&quot;:95.34354492061968,&quot;height&quot;:95.34354492061968},&quot;widthRatioIconToContainer&quot;:0.42527700317850375,&quot;heightRatioIconToContainer&quot;:0.7197000508852754,&quot;relativeBoundsIconToContainer&quot;:{&quot;top&quot;:-5.283920916120134e-7,&quot;left&quot;:-8.806528663475847e-7},&quot;iconType&quot;:&quot;initial&quot;,&quot;initialText&quot;:&quot;L&quot;,&quot;rawInitialId&quot;:100,&quot;blockLetter&quot;:&quot;O&quot;,&quot;line&quot;:1,&quot;iconInPrimaryText&quot;:true,&quot;suitableAsStandaloneIcon&quot;:true}"
                                fill-rule="evenodd">
                                <g data-paper-data="{&quot;isPathIcon&quot;:true}">
                                    <path
                                        d="M134.2549,191.07525c-5.70297,2.41299 -10.75395,5.81797 -15.15193,10.21595c-4.39798,4.39798 -7.80396,9.44895 -10.21595,15.15193c-2.49799,5.90597 -3.74698,12.09194 -3.74698,18.55691c0,6.46497 1.24899,12.65094 3.74698,18.55691c2.41199,5.70297 5.81797,10.75395 10.21595,15.15193c4.39798,4.39798 9.44895,7.80296 15.15193,10.21595c5.90597,2.49799 12.09194,3.74698 18.55691,3.74698c6.46497,0 12.64994,-1.24899 18.55591,-3.74698c5.70397,-2.41299 10.75495,-5.81797 15.15293,-10.21595c4.39798,-4.39798 7.80296,-9.44895 10.21495,-15.15193c2.49865,-5.90597 3.74798,-12.09161 3.74798,-18.55691c0,-6.4653 -1.24933,-12.65094 -3.74798,-18.55691c-2.41199,-5.70297 -5.81697,-10.75395 -10.21495,-15.15193c-4.39798,-4.39798 -9.44895,-7.80296 -15.15293,-10.21595c-5.90597,-2.49799 -12.09094,-3.74698 -18.55591,-3.74698c-6.46497,0 -12.65094,1.24899 -18.55691,3.74698zM135.6839,275.54784c-5.26497,-2.22699 -9.92695,-5.37097 -13.98793,-9.43195c-4.06098,-4.06098 -7.20497,-8.72296 -9.43195,-13.98793c-2.30399,-5.44897 -3.45698,-11.15895 -3.45698,-17.12792c0,-5.96897 1.15299,-11.67894 3.45698,-17.12792c2.22699,-5.26397 5.37097,-9.92695 9.43195,-13.98793c4.06098,-4.06098 8.72296,-7.20497 13.98793,-9.43095c5.44931,-2.30532 11.15861,-3.45798 17.12792,-3.45798c5.9693,0 11.67861,1.15266 17.12792,3.45798c5.26397,2.22599 9.92695,5.36997 13.98793,9.43095c4.06098,4.06098 7.20497,8.72296 9.43095,13.98793c2.30499,5.44897 3.45698,11.15895 3.45698,17.12792c0,5.96897 -1.15199,11.67894 -3.45698,17.12792c-2.22599,5.26497 -5.36997,9.92695 -9.43095,13.98793c-4.06098,4.06098 -8.72396,7.20497 -13.98793,9.43195c-5.44897,2.30399 -11.15895,3.45698 -17.12792,3.45698c-5.96897,0 -11.67894,-1.15299 -17.12792,-3.45698z"
                                        fill-opacity="0.6" fill="#41b6e6"></path>
                                    <path d="M144.49385,258.91292h28.59086v10.39595h-40.54681v-68.61767h11.95594z"
                                        fill="#41b6e6"></path>
                                </g>
                            </g>
                        </g>
                    </g>
                </g>
            </svg>